PathFileType	4	(X/Y/Z)	RKneeTrial12.trc
DataRate	CameraRate	NumFrames	NumMarkers	Units	OrigDataRate	OrigDataStartFrame	OrigNumFrames
100	100	5	33	m	100	83	851
Frame#	Time	L_Toe			Neck			R_Toe			R_Shoulder			L_Wrist			L_Shank_Lateral			L_Elbow			R_Shank_Lateral			L_Shoulder			R_Midfoot_Lateral			L_Midfoot_Superior			R_Midfoot_Superior			R_Heel			R_Thigh_Lateral			L_Heel			R_Patella			L_Midfoot_Lateral			R_Elbow			R_Wrist			R_Shank_Inferior			Sternum			R_Thigh_Inferior			L_Shank_Inferior			R_Shank_Superior			L_Thigh_Superior			R_Thigh_Superior			R_Asis			L_Asis			L_Shank_Superior			L_Patella			Sacral			L_Thigh_Lateral			L_Thigh_Inferior
		X1	Y1	Z1	X2	Y2	Z2	X3	Y3	Z3	X4	Y4	Z4	X5	Y5	Z5	X6	Y6	Z6	X7	Y7	Z7	X8	Y8	Z8	X9	Y9	Z9	X10	Y10	Z10	X11	Y11	Z11	X12	Y12	Z12	X13	Y13	Z13	X14	Y14	Z14	X15	Y15	Z15	X16	Y16	Z16	X17	Y17	Z17	X18	Y18	Z18	X19	Y19	Z19	X20	Y20	Z20	X21	Y21	Z21	X22	Y22	Z22	X23	Y23	Z23	X24	Y24	Z24	X25	Y25	Z25	X26	Y26	Z26	X27	Y27	Z27	X28	Y28	Z28	X29	Y29	Z29	X30	Y30	Z30	X31	Y31	Z31	X32	Y32	Z32	X33	Y33	Z33

83	   0.820	    0.65060601800000	    0.04368211600000	    0.36704235600000	    0.46984513100000	    1.48371031500000	    0.33734228600000	    0.45893914200000	    0.06938292100000	    0.64514749600000	    0.51048014700000	    1.46048182500000	    0.48437592100000	    0.51186966100000	    1.07697958900000	   -0.06621160300000	    0.41509054800000	    0.32208938300000	    0.29380400600000	    0.32423195300000	    1.14816364500000	    0.09654520000000	    0.44613126300000	    0.43827850800000	    0.64230080600000	    0.49325859100000	    1.44097674000000	    0.19257473100000	    0.26547421700000	    0.16475018600000	    0.66311006300000	    0.53286949600000	    0.09057128800000	    0.38789659400000	    0.37313914500000	    0.16852574300000	    0.61912393700000	    0.19536650000000	    0.20003279900000	    0.59258991900000	    0.54703069800000	    0.68952359300000	    0.60769617100000	    0.36400058500000	    0.03330811200000	    0.43765252900000	    0.63384040400000	    0.49730370400000	    0.55705826800000	    0.43563377800000	    0.02746003500000	    0.36529766300000	    0.51729462200000	    1.15620495200000	    0.66131442500000	    0.65648507900000	    1.22971171200000	    0.46429065700000	    0.41208799500000	    0.28816735100000	    0.60713906000000	    0.59763836500000	    1.37861783900000	    0.34177010700000	    0.63202399800000	    0.62964747600000	    0.54228709100000	    0.49100537900000	    0.22997153900000	    0.36093057500000	    0.53867030200000	    0.40919924100000	    0.59446736600000	    0.59306731500000	    0.72284958500000	    0.26988509000000	    0.62049138500000	    0.74335605600000	    0.53820990400000	    0.55852344000000	    0.99143782700000	    0.51199434600000	    0.56163915000000	    0.95216897500000	    0.25075724200000	    0.50926169600000	    0.38068334600000	    0.32238658300000	    0.55349162800000	    0.48992179300000	    0.32528652800000	    0.38945731700000	    1.00614532900000	    0.38151692600000	    0.48690941000000	    0.65185422900000	    0.24318162800000	    0.56823821200000	    0.60041005500000	    0.29583741200000
84	   0.830	    0.65059824700000	    0.04372641800000	    0.36703484000000	    0.46967741100000	    1.48372101900000	    0.33716202500000	    0.46404435700000	    0.06790837500000	    0.64488772900000	    0.51028643600000	    1.46054269500000	    0.48421903300000	    0.51198577700000	    1.07697451200000	   -0.06643113100000	    0.41507253300000	    0.32210846400000	    0.29380463100000	    0.32429256800000	    1.14809952200000	    0.09629901100000	    0.44653985700000	    0.43670888700000	    0.64247820400000	    0.49315055200000	    1.44098475800000	    0.19241076500000	    0.26939251400000	    0.16078896500000	    0.66292728300000	    0.53286549800000	    0.09059904300000	    0.38786890700000	    0.37696430500000	    0.16595544800000	    0.61897796000000	    0.19886628500000	    0.19529614800000	    0.59245927100000	    0.54665885900000	    0.68956960800000	    0.60788707000000	    0.36399876400000	    0.03330863700000	    0.43764454500000	    0.63352055200000	    0.49751430900000	    0.55741225700000	    0.43563454800000	    0.02745726900000	    0.36529641800000	    0.51720619500000	    1.15629120400000	    0.66120202800000	    0.65641594900000	    1.22984482400000	    0.46420633900000	    0.41442973400000	    0.28620686900000	    0.60716150400000	    0.59751606900000	    1.37869347700000	    0.34164421200000	    0.63161756300000	    0.62958525800000	    0.54260203700000	    0.49098434300000	    0.22998486600000	    0.36089515600000	    0.53939168000000	    0.40888277700000	    0.59459552200000	    0.59309550400000	    0.72285614100000	    0.26985778500000	    0.62027994400000	    0.74333688500000	    0.53851976900000	    0.55850278000000	    0.99148553000000	    0.51196747100000	    0.56170867400000	    0.95219171300000	    0.25074304800000	    0.50924852400000	    0.38069776600000	    0.32233475200000	    0.55350299900000	    0.48992665900000	    0.32519105200000	    0.38948327200000	    1.00613133000000	    0.38141283100000	    0.48694449500000	    0.65187133700000	    0.24313799700000	    0.56824797200000	    0.60041391100000	    0.29577754400000
85	   0.840	    0.65058958200000	    0.04377376100000	    0.36702698700000	    0.46952055300000	    1.48373097000000	    0.33697965500000	    0.46914689500000	    0.06651770900000	    0.64459381300000	    0.51010551300000	    1.46060599100000	    0.48406127600000	    0.51209754300000	    1.07696559900000	   -0.06665901800000	    0.41504158900000	    0.32212911500000	    0.29380723500000	    0.32435547800000	    1.14803639600000	    0.09605064400000	    0.44698174500000	    0.43514816100000	    0.64267334600000	    0.49305295200000	    1.44098864900000	    0.19224635100000	    0.27335110500000	    0.15691309600000	    0.66276362800000	    0.53285908100000	    0.09062792300000	    0.38784074600000	    0.38080687900000	    0.16346573600000	    0.61882773200000	    0.20240440300000	    0.19064661600000	    0.59237369700000	    0.54628258700000	    0.68961500700000	    0.60809006200000	    0.36399667400000	    0.03330697400000	    0.43763768300000	    0.63319668200000	    0.49772548400000	    0.55776751800000	    0.43563502600000	    0.02745378900000	    0.36529507200000	    0.51713137900000	    1.15638334800000	    0.66109458600000	    0.65635886500000	    1.22997809000000	    0.46412400900000	    0.41678776700000	    0.28428721200000	    0.60718446600000	    0.59740553000000	    1.37876812100000	    0.34151825900000	    0.63121343900000	    0.62952469800000	    0.54293492900000	    0.49095527700000	    0.22999928600000	    0.36085882400000	    0.54011739300000	    0.40857955900000	    0.59472227200000	    0.59311070600000	    0.72286182200000	    0.26984011600000	    0.62007075700000	    0.74331939200000	    0.53885069100000	    0.55848245400000	    0.99152673400000	    0.51194875300000	    0.56177543900000	    0.95221048600000	    0.25073694300000	    0.50922087400000	    0.38071437200000	    0.32228152800000	    0.55350211500000	    0.48993437000000	    0.32509976900000	    0.38951118700000	    1.00612356900000	    0.38131765000000	    0.48696507600000	    0.65189151600000	    0.24309962800000	    0.56824635600000	    0.60041769800000	    0.29572503600000
86	   0.850	    0.65057999900000	    0.04382393100000	    0.36701868300000	    0.46937638500000	    1.48374070200000	    0.33679548800000	    0.47425842000000	    0.06520213700000	    0.64425165800000	    0.50993877400000	    1.46067221900000	    0.48390298200000	    0.51220555600000	    1.07695177200000	   -0.06689258400000	    0.41499571600000	    0.32215161900000	    0.29381235000000	    0.32442124000000	    1.14797470300000	    0.09580201200000	    0.44746194100000	    0.43359143000000	    0.64288718600000	    0.49296764800000	    1.44098850400000	    0.19208196400000	    0.27736184800000	    0.15311163200000	    0.66262112800000	    0.53285022000000	    0.09065778500000	    0.38781221100000	    0.38467651800000	    0.16104877000000	    0.61866852500000	    0.20598750300000	    0.18607542400000	    0.59233996100000	    0.54590180300000	    0.68965984600000	    0.60830281600000	    0.36399420000000	    0.03330286100000	    0.43763233200000	    0.63286754300000	    0.49793740700000	    0.55811944600000	    0.43563524600000	    0.02744965300000	    0.36529366900000	    0.51706910300000	    1.15648230100000	    0.66099322800000	    0.65631379000000	    1.23011103400000	    0.46404507400000	    0.41916810200000	    0.28240431100000	    0.60720642900000	    0.59730805900000	    1.37884150500000	    0.34139303100000	    0.63081034700000	    0.62946561200000	    0.54328180700000	    0.49091740700000	    0.23001505400000	    0.36082098500000	    0.54085128700000	    0.40828815800000	    0.59484312700000	    0.59311079800000	    0.72286624900000	    0.26982972700000	    0.61986154600000	    0.74330286900000	    0.53919819900000	    0.55846246500000	    0.99156232400000	    0.51193817700000	    0.56183827500000	    0.95222538500000	    0.25073881200000	    0.50917705400000	    0.38073317000000	    0.32222651500000	    0.55348723400000	    0.48994529300000	    0.32501149300000	    0.38954046800000	    1.00612268900000	    0.38123212300000	    0.48696812200000	    0.65191491400000	    0.24306644700000	    0.56823106800000	    0.60042115500000	    0.29567786400000
87	   0.860	    0.65056953100000	    0.04387654800000	    0.36700985900000	    0.46924660700000	    1.48375079900000	    0.33660994900000	    0.47938915700000	    0.06395338100000	    0.64384932300000	    0.50978757000000	    1.46074187400000	    0.48374449600000	    0.51231060300000	    1.07693239600000	   -0.06712872500000	    0.41493343700000	    0.32217626400000	    0.29382062500000	    0.32449035000000	    1.14791496800000	    0.09555528300000	    0.44798491700000	    0.43203483900000	    0.64311995300000	    0.49289634600000	    1.44098456300000	    0.19191811700000	    0.28143552400000	    0.14937486200000	    0.66250117200000	    0.53283903600000	    0.09068842200000	    0.38778346300000	    0.38858216400000	    0.15869729200000	    0.61849626900000	    0.20962202600000	    0.18157506600000	    0.59236306100000	    0.54551666900000	    0.68970426300000	    0.60852278700000	    0.36399122500000	    0.03329610900000	    0.43762886800000	    0.63253194800000	    0.49815044700000	    0.55846295600000	    0.43563526700000	    0.02744496500000	    0.36529225500000	    0.51701836300000	    1.15658888900000	    0.66089896900000	    0.65628063900000	    1.23024333100000	    0.46397078700000	    0.42157643900000	    0.28055485400000	    0.60722600600000	    0.59722482900000	    1.37891345800000	    0.34126925900000	    0.63040689300000	    0.62940781900000	    0.54363815300000	    0.49087031600000	    0.23003237500000	    0.36078126400000	    0.54159703200000	    0.40800752300000	    0.59495373100000	    0.59309420400000	    0.72286910400000	    0.26982408700000	    0.61965021500000	    0.74328659200000	    0.53955741200000	    0.55844297900000	    0.99159346000000	    0.51193562700000	    0.56189599800000	    0.95223662200000	    0.25074850700000	    0.50911603500000	    0.38075413400000	    0.32216968400000	    0.55345711000000	    0.48995974900000	    0.32492532800000	    0.38957052500000	    1.00612926600000	    0.38115707100000	    0.48695107100000	    0.65194159000000	    0.24303854000000	    0.56820028900000	    0.60042411400000	    0.29563418000000
